<?xml version="1.0" standalone="no"?>
<!DOCTYPE svg PUBLIC "-//W3C//DTD SVG 20010904//EN"
 "http://www.w3.org/TR/2001/REC-SVG-20010904/DTD/svg10.dtd">
<svg version="1.0" xmlns="http://www.w3.org/2000/svg"
 width="640.000000pt" height="498.000000pt" viewBox="0 0 640.000000 498.000000"
 preserveAspectRatio="xMidYMid meet">

<g transform="translate(0.000000,498.000000) scale(0.100000,-0.100000)"
fill="#000000" stroke="none">
<path d="M3089 4794 c-337 -61 -661 -270 -777 -502 -51 -103 -66 -173 -59
-282 9 -143 67 -266 155 -331 55 -40 110 -58 222 -73 l95 -12 41 -73 c85 -152
146 -191 316 -201 158 -9 180 -28 327 -279 40 -68 79 -138 87 -157 22 -53 17
-175 -11 -294 -46 -188 -36 -170 -120 -219 -41 -25 -74 -46 -72 -47 1 -2 144
0 316 3 311 6 313 6 278 24 -79 41 -137 152 -137 262 0 34 -5 108 -12 164 -23
204 15 265 243 382 195 101 280 203 329 396 45 175 35 295 -40 491 -23 60 -47
132 -54 159 -7 28 -20 64 -28 80 -19 35 -110 124 -189 183 -42 32 -59 52 -68
81 -24 80 -140 166 -285 210 -162 50 -396 65 -557 35z m426 -40 c210 -34 350
-106 371 -190 10 -38 -1 -51 -49 -58 -63 -10 -93 0 -108 36 -11 28 -10 32 11
48 20 15 21 18 5 23 -9 4 -36 7 -59 7 -29 0 -52 7 -70 21 l-27 21 -22 -20
c-49 -44 -169 -81 -264 -82 -41 0 -42 -1 -33 -25 12 -32 0 -89 -33 -165 -14
-30 -28 -71 -32 -90 -22 -110 -23 -111 -63 -105 l-37 7 29 -20 c16 -11 38 -37
50 -58 11 -20 26 -39 31 -41 6 -2 10 38 11 105 1 88 6 120 27 180 44 122 75
152 202 193 39 12 81 30 94 40 60 47 153 7 153 -65 0 -20 -2 -39 -5 -42 -10
-10 -37 10 -45 34 -10 27 -10 27 -29 -18 -31 -69 -46 -78 -84 -46 -42 36 -50
33 -27 -13 24 -48 15 -91 -34 -166 -23 -34 -32 -59 -30 -78 5 -38 23 -29 37
19 19 65 51 118 93 156 52 47 81 57 95 32 14 -26 69 -80 87 -86 12 -4 12 -10
-2 -46 l-16 -42 27 0 c39 0 60 -28 83 -111 10 -40 28 -85 39 -101 l20 -28 -24
-23 c-25 -26 -109 -61 -172 -73 l-38 -7 5 32 c6 42 -4 39 -23 -7 -14 -35 -24
-41 -89 -66 -40 -14 -75 -24 -78 -22 -3 3 0 31 7 62 17 86 14 86 -32 -1 -53
-100 -88 -123 -162 -104 -26 7 -67 27 -91 45 -24 19 -46 34 -49 34 -2 0 0 -12
5 -26 14 -36 13 -44 -8 -44 -41 0 -127 -34 -154 -60 -35 -35 -39 -99 -9 -129
20 -20 98 -47 108 -38 2 3 -16 19 -41 36 -26 18 -49 43 -52 56 -17 69 32 87
251 95 l170 6 98 43 98 44 42 -41 c23 -22 56 -44 72 -48 29 -6 28 -5 -23 48
l-53 54 54 17 c65 21 113 21 147 2 14 -8 36 -14 50 -15 23 0 22 2 -13 23 l-39
23 36 28 c44 33 60 63 76 141 15 72 28 89 89 111 61 23 72 34 33 34 -26 0 -32
4 -32 21 0 30 -27 82 -49 96 -18 11 -18 10 1 -39 l19 -51 -25 -21 c-15 -12
-35 -47 -46 -79 -22 -63 -40 -97 -52 -97 -15 0 -58 100 -58 135 0 25 -7 43
-25 59 -14 13 -28 37 -31 55 -4 17 -11 34 -15 37 -33 20 16 33 52 14 11 -7 19
-7 19 -1 0 9 -35 22 -94 36 -43 9 -92 46 -75 55 30 16 139 31 156 22 20 -12
63 -123 63 -164 0 -16 -5 -38 -11 -49 -5 -11 -7 -29 -4 -40 6 -19 7 -19 25 4
11 13 33 30 50 37 24 10 28 15 19 26 -6 8 -17 14 -24 14 -8 0 -19 17 -25 38
-7 20 -25 61 -41 90 l-29 52 25 12 c23 10 33 5 119 -61 149 -113 205 -210 161
-277 -15 -23 -22 -26 -54 -21 -20 3 -45 8 -55 13 -15 6 -17 4 -11 -6 4 -7 8
-29 7 -48 -2 -49 6 -57 30 -27 22 28 46 33 55 9 7 -20 -31 -60 -82 -84 l-40
-20 35 6 c48 9 107 40 120 64 14 27 46 25 64 -2 8 -13 24 -55 36 -95 18 -60
21 -91 18 -185 -3 -100 -7 -120 -32 -177 l-30 -64 -23 29 c-27 34 -28 51 -8
90 16 31 19 117 5 149 -6 15 -9 6 -9 -32 -1 -60 -14 -99 -43 -130 l-20 -22 34
-69 35 -69 -25 -49 c-13 -27 -32 -58 -41 -68 -16 -19 -100 -76 -111 -76 -4 0
-7 21 -7 48 0 26 -3 58 -7 73 -6 21 0 34 40 78 37 41 43 52 26 47 -18 -6 -24
-2 -32 18 -8 23 -20 29 -71 38 -8 2 -38 -16 -66 -40 -30 -25 -54 -38 -58 -32
-3 5 -14 10 -23 10 -12 0 -13 -3 -4 -12 22 -22 13 -39 -30 -57 -73 -31 -98
-34 -98 -12 0 22 -35 69 -45 59 -4 -4 0 -17 9 -30 24 -34 20 -45 -24 -74 -22
-15 -40 -31 -40 -36 0 -12 29 -4 103 28 85 37 120 41 146 15 25 -25 26 -20 7
18 -15 27 -14 29 43 85 48 48 63 57 87 54 43 -5 43 -41 -1 -120 -35 -65 -35
-65 -15 -83 23 -21 25 -40 6 -74 -9 -16 -40 -33 -102 -57 -48 -18 -89 -32 -91
-31 -1 2 8 22 19 45 26 50 17 66 -14 27 -34 -42 -47 -68 -48 -91 0 -11 -13
-30 -29 -42 -16 -12 -32 -35 -36 -53 -6 -26 -9 -29 -20 -18 -17 19 -35 76 -35
111 0 23 12 41 53 79 28 27 48 49 44 49 -19 0 -94 -44 -114 -68 -22 -26 -22
-26 -44 -7 -31 28 -79 138 -86 196 -6 49 -5 51 39 93 47 44 193 112 292 136
65 15 93 30 152 83 27 24 61 47 76 51 31 7 70 55 87 105 18 53 5 48 -29 -12
-30 -54 -49 -68 -113 -83 -15 -3 -30 -10 -33 -15 -3 -5 -23 0 -44 11 -53 27
-59 25 -26 -9 l27 -28 -70 -37 c-52 -27 -88 -38 -136 -43 -65 -6 -67 -5 -100
27 -38 37 -43 34 -20 -10 l15 -29 -82 -25 c-194 -59 -226 -58 -299 11 -27 25
-49 42 -49 38 0 -13 71 -105 93 -120 35 -24 117 -18 224 16 54 17 105 34 113
36 8 3 -14 -11 -49 -31 -80 -44 -97 -60 -118 -107 -18 -43 -30 -46 -98 -28
-22 6 -103 12 -180 13 -120 2 -146 5 -180 23 -52 28 -85 64 -125 140 -40 78
-36 112 21 177 54 61 90 78 239 116 68 17 148 42 179 54 31 13 74 29 96 36 22
7 59 23 81 36 23 14 83 34 135 45 104 22 179 52 179 69 0 8 -15 10 -49 5 -92
-12 -117 26 -57 89 l33 36 -37 0 c-34 0 -38 3 -45 33 -7 31 -7 32 -18 9 -7
-16 -7 -31 0 -50 8 -22 5 -36 -13 -72 -39 -80 -107 -130 -174 -130 -34 0 -36
5 -45 120 -9 126 21 192 96 207 38 7 32 28 -8 28 -20 0 -37 8 -50 24 l-20 25
0 -41 c0 -29 -11 -61 -38 -109 l-38 -68 11 -95 12 -96 -28 -23 c-42 -35 -123
-72 -157 -72 -34 0 -62 24 -87 75 -41 82 -29 186 30 263 37 49 95 183 113 262
18 80 56 103 184 116 72 7 77 8 45 16 -43 10 -136 2 -212 -19 -45 -12 -58 -20
-62 -39 -6 -24 -7 -24 -42 -9 -68 28 -173 13 -275 -41 -22 -11 -58 -18 -100
-19 -85 -1 -112 -18 -134 -86 -15 -43 -25 -56 -66 -82 -27 -16 -49 -30 -49
-31 0 -1 37 -1 83 -1 l84 0 -19 43 c-40 90 31 159 118 114 l38 -19 24 29 c38
45 98 71 177 75 58 4 76 1 103 -16 53 -34 59 -60 33 -142 -31 -98 -55 -122
-116 -121 -55 0 -67 11 -84 70 -14 51 -6 67 43 80 l31 9 -32 7 c-18 4 -33 14
-33 21 0 7 -7 16 -16 19 -11 4 -14 1 -12 -12 1 -9 -4 -38 -11 -64 l-14 -48
-64 0 c-56 0 -67 3 -88 26 -29 31 -31 27 -10 -23 8 -19 15 -44 15 -55 0 -27
-56 -82 -76 -74 -9 3 -28 9 -42 12 l-27 5 28 -16 c16 -9 34 -30 42 -47 l13
-32 15 31 c23 43 108 117 151 130 35 11 38 10 48 -13 17 -37 -16 -110 -70
-151 -73 -55 -155 -56 -212 -3 -18 17 -34 30 -37 30 -3 0 -2 -17 1 -37 4 -22
0 -61 -9 -93 -8 -30 -15 -81 -15 -113 0 -72 -12 -97 -48 -97 -26 -1 -26 -1 -7
-16 15 -11 35 -13 92 -8 l73 7 15 -34 14 -34 1 28 c0 28 -41 77 -65 77 -22 0
-43 34 -50 81 -8 53 8 124 30 133 8 3 47 1 85 -3 60 -8 74 -13 93 -37 l22 -28
7 48 c7 51 27 85 91 156 31 33 43 41 62 36 28 -7 45 -55 45 -127 0 -25 7 -68
15 -95 8 -27 15 -64 15 -82 0 -30 -5 -34 -52 -56 -48 -21 -55 -22 -70 -8 -26
22 -22 59 12 122 30 56 38 103 20 130 -7 11 -10 6 -10 -20 0 -91 -45 -155
-115 -165 -51 -8 -107 13 -130 49 -22 33 -38 34 -23 1 10 -22 8 -30 -11 -56
l-23 -31 22 7 c12 4 48 7 81 7 62 0 113 -22 136 -61 11 -18 7 -23 -36 -55 -47
-35 -93 -93 -111 -141 -8 -21 -16 -25 -52 -25 -60 0 -169 25 -214 48 -47 25
-99 77 -113 115 -19 50 -14 131 11 162 19 25 26 27 75 23 29 -3 53 -1 53 3 0
12 -35 29 -59 29 -29 0 -27 7 24 61 25 26 45 54 45 60 0 7 7 21 17 31 9 11 11
18 5 18 -15 0 -15 35 -2 61 7 13 7 19 1 19 -16 0 -38 -50 -46 -103 -7 -43 -16
-57 -86 -126 -43 -43 -81 -76 -84 -73 -3 3 -5 38 -5 79 0 61 3 76 21 94 17 17
29 20 62 16 36 -5 38 -4 24 10 -14 14 -14 19 4 52 10 20 19 45 19 56 -1 13 -9
4 -26 -28 -33 -64 -106 -97 -77 -35 28 60 75 109 133 138 68 34 100 62 100 87
0 14 -3 14 -22 -5 -13 -11 -36 -24 -53 -28 -30 -7 -30 -6 15 41 25 25 82 71
127 101 244 164 554 222 888 168z"/>
<path d="M4018 3616 c-18 -17 -35 -22 -55 -19 -20 3 -24 2 -14 -5 7 -5 16 -15
20 -21 5 -7 22 4 46 29 43 44 45 52 3 16z"/>
<path d="M2152 4020 c-7 -25 -16 -93 -21 -152 -11 -129 -34 -180 -122 -263
-32 -31 -65 -66 -74 -78 -21 -30 -19 -86 6 -159 22 -67 19 -106 -12 -134 -24
-22 -24 -64 1 -96 l19 -25 -29 -28 c-58 -55 -51 -104 20 -134 27 -12 51 -25
54 -29 3 -5 0 -49 -6 -99 -14 -111 -5 -140 59 -182 66 -44 130 -54 255 -41
169 17 258 -11 296 -93 11 -23 31 -75 43 -114 21 -68 25 -73 51 -73 15 0 28 2
28 5 0 3 -9 43 -21 89 -27 110 -54 154 -114 191 l-49 30 -203 -3 c-281 -4
-287 0 -284 178 2 121 -10 149 -74 170 -19 6 -35 16 -35 21 0 12 36 48 70 70
l24 16 -32 39 c-18 21 -32 42 -32 46 0 4 12 24 26 45 34 51 31 129 -8 187 -15
22 -24 45 -20 55 3 9 41 56 85 106 154 175 165 216 118 465 l-7 35 -12 -45z"/>
<path d="M5552 1908 c-47 -15 -62 -24 -60 -37 2 -12 16 -17 51 -19 l47 -3 0
-384 0 -385 -45 -11 c-33 -8 -45 -16 -45 -30 0 -18 10 -19 135 -19 128 0 135
1 135 20 0 13 -9 22 -27 26 -50 12 -53 20 -53 130 l0 104 38 0 c37 0 40 -2
120 -117 45 -65 82 -128 82 -140 0 -22 2 -23 101 -23 98 0 100 0 97 23 -2 17
-11 23 -43 27 -38 5 -43 11 -148 157 l-109 153 82 87 c86 92 98 101 143 102
22 1 27 6 27 26 l0 25 -120 0 -120 0 0 -25 c0 -21 5 -25 30 -25 21 0 30 -5 30
-16 0 -22 -171 -212 -192 -213 -17 -1 -18 19 -18 294 l0 295 -37 -1 c-21 -1
-66 -10 -101 -21z"/>
<path d="M507 1860 c-124 -32 -197 -116 -197 -230 0 -101 39 -148 180 -213
173 -79 190 -89 210 -117 28 -40 30 -122 3 -159 -30 -40 -99 -71 -161 -71 -62
0 -137 17 -151 34 -6 7 -14 45 -17 84 l-7 72 -38 0 -39 0 0 -108 0 -109 43
-13 c65 -20 185 -29 254 -19 179 25 282 153 243 299 -18 68 -75 116 -200 169
-166 70 -210 106 -210 175 0 108 111 177 232 145 59 -16 74 -35 83 -111 6 -45
8 -48 36 -48 l29 0 0 98 0 99 -52 12 c-71 17 -195 22 -241 11z"/>
<path d="M4221 1850 c-121 -44 -220 -159 -250 -290 -15 -66 -13 -187 4 -255
60 -229 279 -355 501 -287 166 51 269 193 281 387 13 196 -76 359 -235 433
-78 36 -220 42 -301 12z m207 -52 c65 -16 142 -93 172 -173 48 -129 34 -337
-30 -438 -72 -114 -212 -154 -329 -93 -43 23 -88 77 -118 141 -27 57 -28 67
-28 200 1 166 18 226 90 299 64 67 147 88 243 64z"/>
<path d="M3256 1673 c-22 -47 -35 -61 -67 -75 -27 -12 -39 -23 -39 -37 0 -18
6 -21 39 -21 l40 0 3 -240 c3 -212 5 -241 21 -257 22 -22 140 -30 214 -14 45
11 53 16 53 35 0 21 -3 22 -55 18 -128 -11 -135 3 -135 263 l0 195 95 0 95 0
0 30 0 30 -95 0 -95 0 0 65 c0 61 -1 65 -23 65 -19 0 -29 -12 -51 -57z"/>
<path d="M1279 1615 c-19 -7 -54 -22 -77 -34 -52 -27 -52 -27 -52 9 0 26 -4
30 -26 30 -15 0 -58 -9 -95 -20 -55 -17 -69 -25 -69 -40 0 -17 7 -20 45 -20
l45 0 -2 -226 c-3 -246 -1 -236 -60 -249 -19 -4 -28 -12 -28 -25 0 -19 7 -20
135 -20 128 0 135 1 135 20 0 13 -9 22 -27 26 -53 13 -53 12 -53 234 l0 208
40 16 c96 38 168 29 195 -25 20 -38 22 -417 3 -423 -7 -3 -25 -7 -40 -10 -19
-4 -28 -13 -28 -26 0 -19 7 -20 135 -20 128 0 135 1 135 20 0 13 -9 22 -27 26
-16 3 -34 7 -40 10 -10 2 -13 55 -13 219 l0 215 38 16 c20 9 63 17 94 18 50 1
61 -3 85 -27 l28 -27 3 -196 c2 -130 0 -200 -8 -209 -6 -7 -24 -15 -40 -19
-21 -4 -30 -11 -30 -26 0 -19 6 -20 135 -20 128 0 135 1 135 20 0 13 -9 21
-27 25 -60 13 -58 5 -63 241 -6 251 -11 268 -88 305 -56 28 -112 21 -211 -26
l-73 -35 -21 26 c-39 50 -115 66 -188 39z"/>
<path d="M2210 1617 c-94 -26 -147 -79 -138 -139 3 -21 9 -23 61 -26 l57 -3 0
55 0 54 48 11 c111 23 162 -18 162 -129 0 -47 0 -48 -37 -55 -63 -11 -216 -63
-251 -85 -44 -27 -72 -76 -72 -128 0 -147 128 -201 288 -121 l72 36 8 -31 8
-31 87 -3 c82 -3 87 -2 87 17 0 14 -8 22 -27 26 -60 13 -58 4 -63 248 -5 209
-7 228 -26 254 -11 15 -34 35 -50 43 -38 19 -157 23 -214 7z m190 -378 l0
-110 -55 -25 c-117 -51 -195 -22 -195 73 0 48 13 72 53 103 19 14 163 68 185
69 9 1 12 -27 12 -110z"/>
<path d="M2926 1569 l-66 -61 0 56 0 56 -33 0 c-18 0 -61 -9 -95 -21 -47 -16
-62 -25 -62 -40 0 -16 7 -19 40 -19 l40 0 0 -230 c0 -176 -3 -232 -12 -234 -7
-3 -25 -7 -40 -10 -19 -4 -28 -13 -28 -26 0 -19 7 -20 150 -20 141 0 150 1
150 19 0 16 -10 21 -52 28 l-53 8 -3 187 -2 187 34 34 c48 49 96 63 137 43 57
-29 69 -23 69 34 0 45 -3 52 -26 60 -54 21 -78 13 -148 -51z"/>
<path d="M5057 1620 c-88 -22 -150 -80 -145 -134 3 -30 4 -31 61 -34 l57 -3 0
55 0 54 50 11 c27 6 55 9 62 7 7 -3 25 -7 40 -10 37 -8 58 -52 58 -119 l0 -55
-37 -7 c-80 -15 -222 -66 -260 -94 -48 -35 -68 -83 -60 -146 6 -58 38 -100 92
-121 58 -22 116 -14 195 26 33 17 63 30 67 31 4 0 11 -14 16 -30 l8 -31 84 0
c78 0 85 2 85 20 0 13 -9 21 -27 25 -60 13 -58 4 -63 247 -5 243 -9 257 -66
295 -30 19 -159 27 -217 13z m183 -380 l0 -111 -52 -24 c-58 -27 -132 -32
-159 -12 -25 19 -39 52 -39 91 0 56 47 100 145 136 44 16 86 29 93 30 9 0 12
-28 12 -110z"/>
<path d="M340 540 c0 -6 7 -13 15 -16 12 -5 15 -29 15 -125 0 -99 -3 -119 -15
-119 -8 0 -15 -4 -15 -10 0 -6 29 -10 66 -10 41 0 63 4 59 10 -3 6 -13 10 -21
10 -10 0 -14 12 -14 43 0 41 1 42 37 44 48 2 78 19 92 50 26 56 3 106 -57 123
-48 13 -162 13 -162 0z m154 -36 c36 -36 8 -114 -41 -114 -22 0 -23 3 -23 65
0 62 1 65 24 65 14 0 32 -7 40 -16z"/>
<path d="M1110 540 c0 -6 7 -13 15 -16 12 -5 15 -29 15 -125 0 -99 -3 -119
-15 -119 -8 0 -15 -4 -15 -10 0 -6 27 -10 60 -10 58 0 80 12 40 23 -16 4 -20
14 -20 52 0 45 1 46 28 43 21 -2 32 -14 52 -53 27 -53 62 -78 98 -68 28 7 29
23 2 23 -15 0 -27 15 -45 55 -13 30 -29 55 -36 55 -6 0 3 13 20 29 50 47 38
103 -27 121 -48 13 -172 13 -172 0z m154 -36 c35 -35 6 -94 -46 -94 -27 0 -28
1 -28 55 0 54 0 55 29 55 16 0 37 -7 45 -16z"/>
<path d="M1983 530 c-42 -25 -63 -68 -63 -125 0 -67 24 -110 74 -135 51 -24
87 -25 133 -3 98 46 105 205 11 263 -43 26 -113 26 -155 0z m108 -10 c5 0 18
-15 29 -32 36 -60 20 -184 -25 -202 -60 -23 -106 17 -113 97 -7 86 37 158 86
141 8 -2 18 -4 23 -4z"/>
<path d="M2810 541 c0 -5 9 -13 20 -16 18 -6 20 -15 20 -94 0 -108 -13 -151
-45 -151 -18 0 -24 6 -27 27 -2 17 -10 29 -20 31 -15 3 -18 -4 -18 -36 0 -37
3 -41 30 -47 44 -10 87 3 110 32 17 22 20 41 20 129 0 94 2 103 20 109 11 4
18 11 15 16 -8 12 -125 12 -125 0z"/>
<path d="M3470 540 c0 -6 7 -13 15 -16 12 -5 15 -29 15 -125 0 -99 -3 -119
-15 -119 -8 0 -15 -4 -15 -10 0 -6 45 -10 115 -10 l115 0 0 36 c0 28 -3 35
-17 32 -10 -2 -19 -13 -21 -26 -3 -20 -9 -22 -58 -22 l-54 0 0 55 0 55 35 0
c24 0 35 -5 35 -15 0 -8 7 -15 16 -15 12 0 14 10 12 47 -3 46 -28 76 -28 34 0
-17 -6 -21 -35 -21 l-35 0 0 50 0 50 50 0 c43 0 50 -3 50 -20 0 -11 7 -20 15
-20 10 0 15 11 15 35 l0 35 -105 0 c-65 0 -105 -4 -105 -10z"/>
<path d="M4324 536 c-112 -49 -107 -222 9 -270 38 -16 55 -18 94 -10 46 9 48
10 51 47 4 46 -22 52 -31 7 -6 -27 -10 -30 -43 -30 -44 0 -93 44 -96 87 -5
103 25 153 93 153 32 0 38 -4 48 -30 14 -42 31 -37 31 9 0 32 -4 40 -22 45
-38 10 -101 6 -134 -8z"/>
<path d="M5020 510 c0 -44 26 -58 32 -17 2 17 11 23 36 25 l32 3 0 -116 c0
-108 -1 -117 -20 -122 -41 -11 -18 -23 45 -23 63 0 86 12 45 23 -19 5 -20 14
-20 122 l0 116 33 -3 c24 -2 33 -8 35 -25 6 -41 32 -27 32 17 l0 40 -125 0
-125 0 0 -40z"/>
<path d="M5849 521 c-50 -51 -35 -96 48 -140 36 -19 49 -33 51 -52 4 -33 -18
-51 -60 -47 -28 2 -34 7 -36 31 -2 19 -9 27 -23 27 -17 0 -20 -6 -17 -37 3
-35 6 -38 43 -46 117 -24 201 65 129 137 -15 14 -32 26 -39 26 -7 0 -24 10
-39 21 -20 15 -26 29 -24 48 3 23 7 26 43 26 34 0 40 -3 43 -22 5 -37 32 -28
32 11 0 38 -15 46 -83 46 -29 0 -46 -7 -68 -29z"/>
</g>
</svg>
