<svg xmlns="http://www.w3.org/2000/svg" viewBox="0 0 754.59 219.25"><defs><style>.cls-1,.cls-2{fill:#fff;}.cls-1{fill-rule:evenodd;}</style></defs><g id="Warstwa_2" data-name="Warstwa 2"><g id="Warstwa_1-2" data-name="Warstwa 1"><polyline class="cls-1" points="236.54 0 234.24 0 234.24 219.25 236.54 219.25"/><path class="cls-1" d="M20.59,85.78c-.09,1.23-.13,2.48-.13,3.74,0,8.26-6.28,13.88-11.27,19.44-1.72,1.91-5,4.71-3.36,6.7,4.25,4.76,5.09,11.77-.29,16.18.61,2.15,3.38,4.52,4.67,6-1.37,1-6.43,3.44-6.43,5.88a8.25,8.25,0,0,0,2,.89c13.49,4.74-4.65,21.69,13.67,23.23,9.8,0,20.53-3.79,27.74,2.06,6.12,5,4.74,9.91,7.68,17.84H51.08c-4.23-9.09-2.35-17.47-15.17-18.52-9.08-.74-16.54,3.22-24.56-1.84-4.73-3.35-6.09-3.49-3.91-16.75.67-4.08-3.35-2.59-6.84-5.66-1.12-1.65-1.1-5.76,3.86-8.7-1.4-1.64-3.27-3.59-2.77-6.86,9.75-6.75-6.54-14.83,4.37-23.21,4.07-3.12,8.65-8.64,9.64-13.64.8-4.06.34-8.4,1.3-13.59a62.26,62.26,0,0,1,2.15-6.48,36,36,0,0,0,1.44,13.26"/><path class="cls-1" d="M116.44,141.86a5.77,5.77,0,0,1,1.21-3.8l0,0a22.16,22.16,0,0,1,3.36-3c-1.1-2.93,2.28-5.77,4.32-8.57a3.15,3.15,0,0,0,1.42.26c-1.4,2.54-3,5-3.24,6.6,3.41-1.95,7.77-3.26,11.94-4.72,1.28-3.25,3.46-4.48-.75-7.34,0-3.12,10.76-13.83-.07-12.22-3.29,3.68-6.63,6.73-7.15,7.47,2,1.77,3,8.12,1.79,4.57-2.09-6.28-10.5-.75-14.12.68s-5.48.18-.68-2c2.28-1,3.82-2.18,1.33-5.09-3.23-3.78,2.42-2.23,2.8,3.32,2.15-.74,13.59-2.75,6.41-6.72,2.94-.71,3.77,1.82,4.13,1.49,1.69-1.58,4.6-4.1,6.83-6.43.26-.26-2.65-1.89-2.4-2.15s3.66.8,3.91.56c9.73-9.29.62.41-1.7,3,3.05-.94,5.88.55,5.76,4a26,26,0,0,1,3.71-1.52c-1.89,2.28-7,5.94-7,9.22,2.79,2.77,1.11,6.32.44,7.89,4.85-1.92,9-4.36,10.4-8.7h0a49.44,49.44,0,0,1,2.34-4.57c-2-1.31-3.31-6.33-4.69-8.48,2.36-2.71,5-4.08,4.12-15.48,1.13,6.39,3.11,9.85-.73,15.07-1.22.88,2.49,4.39,2.61,6,2.38-4.23,4.85-8.65,4.82-13.41h0c-.33-1.8.34-5-.13-8.4-.36-2.51-3.92-19.37-8-12h-.07c-1.72,3.71-16.25,6-7.4,2.8,9.45-3.19,4.87-10.82.39-2.76-1.72-3,1.14-4.37-1.57-8,2,1.06,6.75,3.47,8.46.66,5.26-8.66-11.18-19-17-23.2l-3.05,1.55a36.75,36.75,0,0,1,5.61,12h1.92l1.35,1.71c-2.48.43-5.94,2-6.61,4.73a10.46,10.46,0,0,1-.69-1.91l0,.07a11.17,11.17,0,0,1,.11-1.42c2.62-4.06.18-8.58-1.72-12.51,0-5-10.08-.65-12.23-.72,3.32,4.22,6.45,3.36,11.34,5.08l.67,2c-2.1-1.73-2.92-1.93-5.6-1.47,1.71,2.23,1.9,3.51,1.91,6.17,3.35,1.1,2.72.92,3.38,4.19-.85,2.61,2.57,7.87,4,10,.31-1,2.64-4.78,2.64-5v0a3.43,3.43,0,0,0,.06-.84l-.06.12c1-2.19,1.65-7,5.05-7a32.06,32.06,0,0,0-2.72-8c3.79,3.39,4.87,3.89,4.45,8.78a14.06,14.06,0,0,1,4.6.74v.19c-2.93,1.48-6.59,1.42-8.82,4.1-1.18,1.42-1.69,9.2-3.31,11.12-.25,1.43-4.46,3.72-5.54,4.44a42.13,42.13,0,0,0,5.51,3c-2.53.2-4.5.35-6.49-1.62-3.13-1.4-8.58,1.11-11.76,2.11,1.6,2.39,11.15,9,5,6.8-3.35-1.23-4.46-2.29-7.36-6.1-8,3.38-13.67,7.21-22.91,6.33-4-.81-22.24-.65-16.77,7.54,1,1.48,9.84,5.51,4,4.4-4.79-1.28-6-1.73-6.67-4-2.34-8.59,6.47-10.11,13-11.13L83,87.32c6.17,6.11,15,10,19.11,1.51,1-2.12,5.85-12.48,3.57-4.34a33.42,33.42,0,0,0-1,6.51l10.14-3.85c2.2-5.31,3.19-9.11,2.42-.64,4.31-1.3,13.21-2.41,14.76-7.42-6.44-5.22-1.17-16.39-11.21-14.9,1.29-2.4,1.92-3,2.07-5.94-2.6,0-5.6-4.45-6.92-6.47C108.56,53.36,105.15,61,103.56,68l-1.46.35-.48-4c3.3-4.55,8.57-11.32,2.75-16.5.91.16,2.64.26,3.19,1.07,4.52,6.63,5.39-5.14,7.51-5.15l.59,3.25,2.5.95c1.75-5.73-1.33-9.23-7.33-8.77-1.28,0-3,2.7-4.19,2.7C100.48,44,93.86,45,90.93,51.55c-3.15,7.07-5.06,15.84-2.87,23.34-3.23-.56-2.86-3.92-5-5.77A21.76,21.76,0,0,0,79.4,66.9c1.93-.57,3.08.15,5,.6,1-3.22,1.32-6.6,2.34-9.83,1.82-5.76,5.72-10,3-15.71,4.11.54,20.32-1.73,21.24-7.4,2.86,5.65,7.5,1.92,11.48,4.55l-2.86,1.73c0,1.36,1.09,3.28,1.55,4.59,3.9.27,5.48.42,9.12-.55,3.12-11.6-23.06-16.47-36.16-16.86-21.46-.63-42.85,6.32-56.84,21.7,3.5-.17,4.61-.94,7-3.51,0,5.78-8,6.37-11.25,9.7A48.77,48.77,0,0,0,28,63.61c5.68,2,6.28-7.2,8-7.21-.4,3.74-.9,4.7-3.12,7.69,1.3.52,2.24.75,2.25,2.51-3.53-2.1-3.6-1.39-7.14.08-1.32,3.86-1.07,8.62-.16,12.56,1.88-4.34,5.55-6.44,8.91-9.65,1.67-1.61,1.49-2.68,1.78-5,.37-2.92,1-5.79,4.08-7C41.21,59,41,61.5,40.75,63.38l2-.12c-1.55.94-1.09,1.18-2.37,2.55,0,3.18-4.58,6.6-6.8,8.27,2.46.4,5.53.42,6.45,2.5.57,1.28-3.47-.57-5.09-.32-2.23-.75-5.61,3-5.26,5.75-.73,14.13,13,17.14,24.82,17.32,2.12-6,5.28-9.52,10.82-12.82l.23-.47c-3.2-6.3-10.92-6.18-16.87-4,3.24-2.81,4.53-4.13,1.44-8.2,3.13.79,3,4.51,6.69,5.33,10.24,2.25,13.11-5.59,11.7-14,6.68,9-7.37,14-.08,19.59,7.92-4.33,8.83-.53,5.36-12.69-.27-3.23-.19-9.26-2-12.1l-3-.23c-4.26,4.78-9.45,9.2-8.25,15.84-1-.82-3-2.36-3-3.78L48,70.72c-4.39,0-3.45,13.66-.81,13.65,2.7,1.1,7.37,3,4.71,7.68-.4-10.12-9.58.23-13.15-5.86,3.33,1.12,4.38-.78,4.69-3a53.24,53.24,0,0,0,.1-5.8,19.66,19.66,0,0,1,.54-4c.35-1.45.82-2.44,1-3.49.33-1.69-.15-3-.17-4.51a6.24,6.24,0,0,1,.25-1.84c9,13.56,25.76-2.9,19.52-9.08l-4,1.54v0A21.54,21.54,0,0,0,51.3,66.53c0-5.17-1.24-4.5-5.6-7.3a20.48,20.48,0,0,1,5.94,1.59c8-5.13,2.3-7.26,1.7-13.76,3.82,8.08,5.42,4.45,12,5.11.55-3.81,3.16-4.74,1.21-8.59,2.23,1.22,2.25.85,2.8,3.14A5.64,5.64,0,0,1,73.29,48c-9.17,0-4,4.93-4,9,9.51,3.19,10.38-1.81,13.2-10.55C83,36.7,66.3,38,61,44.1c-1.73,2-.51,3.32-2.8,1.66-6.74-4.9-14,2.14-7.08,9.9V56c-5.38-1.59-7.73-1.56-13,.36,4.54-3.85,8.14-3.42,9.06-8.94.84-5,6.91-6.28,11.76-4.72a44.8,44.8,0,0,1,12.11-5c5.12-1.25,6.66-.41,11.41,1.64l.87-2.91c6.11-2.55,14.15-3.66,20.63-1.84-8.31,1.36-17.68-.88-18.32,9.79L81,56.57c-7.57,6.84-7.94,17.9-1.77,24.21C82.53,84.12,91,78.3,94,75.92c.08-4.63-1.12-8.68-1.14-13.2,3.32-6.24,6.53-8.49,4.2-14.89l3.35,4.5,3.45-.62,1.32,1.66C92.6,54.84,97.26,67,97.3,75c7.57,1.37,12.4-4.47,14.92-11-1.52-3.37-1.63-4.11.41-7.16-.07,2,.76,3.2.77,4.89l5.23-.27c-5,3.46-8.56,9.69,1.94,8,3.67-.57,3.26.48,1,1.91-5.81,3.6-16.25,2.57-20.87,7.21l-9.11,3.15c-10.81,5.68-26,2.57-31.06,16.71-1,2.79,1.92,5,2.6,7.13,1.92,6.07,8.33,11.6,21.17,9.12a105.88,105.88,0,0,1,14.89,2.49c1.7-7.39,7.82-9.78,14.31-12.4-8.14.93-20.38,10-26.41,1.91-7.79-10.39-3.05-6.51.91-1.89,4.42,5.15,17.68-1.26,23.17-2.28-4.22-7.43-1.61-5.15,2.4-.65,8.26,0,10.92-1.14,17.78-5.73-5.38-5.32-3.29-3.6,2.22-1.06,2.12-1.92,7.41-1.41,9-4.55a34.17,34.17,0,0,1,3.73-6.1c0,4.59-3.72,10.75-8.46,10.46-4.92,5.56-8.52,8.1-16,8.95-6.44,3.12-15.92,5.31-18.27,11.42-1,2.57,1.19,6.83,2.32,10.57l0-.08c1.11,3,2.51,3.91,4.63,6.51,1-1.38,1.82-3,3.31-3.82,10-5.48,5.56-1,1.61,1.7-4.69,3.17-1,7.95-.38,11.62l1.42.11v0M134,45c9.46,7.17,18.67,13.76,17.94,21.55,3.79,9.5,8.43,18.43,7.91,29.42-.66,14-6,28.54-19.51,35.35-18,9.11-22.35,10.38-18.77,32.29.58,3.59-.58,6.93.55,10.41,2.49,7.66,5.07,10.49,11.67,13.39l-20.08-.21-22.25.55c3.18-3.38,9.55-4.6,10.15-7.15,2.54-10.83,8.07-23.52,1.63-33.21-.76-1.14-1.46-2.35-2.13-3.59C96,136,91.22,122,79.76,122.63a28,28,0,0,1-7.27-.28c-9.67-2-12.55-7.91-17.57-17.62-10-.74-19.67-1.37-25.77-10.6-4.81-7.28-6.28-17.49-4.7-25.66,1.33-6.88,5.93-14.62,10.8-19.54h0c15.16-15.37,39-24.88,61.51-23.28C108.52,26.48,132,31.12,134,45Z"/><path class="cls-2" d="M316.83,100h5.51l1.12,10.74,1.22,1.59a22.91,22.91,0,0,0,10.46,2.15c9.06,0,14.11-4.67,14.11-11.21,0-7.75-5.42-9.44-15.6-13.83-10.37-4.48-15.79-7.94-15.79-17,0-10.55,8.31-17.93,21.58-17.93a51.46,51.46,0,0,1,15.88,2.61V71.62h-4.86l-1.4-8.87-1.4-1.59a17,17,0,0,0-8.41-2c-7.94,0-12.7,4.48-12.7,11.3,0,6.26,4.48,8.59,13.08,12.24,4.76,2,9.8,3.45,14.1,7.66a14,14,0,0,1,4.11,10.27c0,11-9.25,18.78-24.19,18.78a43,43,0,0,1-16.82-3Z"/><path class="cls-2" d="M422.58,72.46c7.38,0,12.05,5,12.05,14.2V113l1.59,1.5,4.95.47v3.36H420.8V115l4.39-.47,1.69-1.5V88.25c0-6.54-2.62-9.62-8.41-9.62-3,0-6.54,1.12-10.56,3.08V113l1.69,1.5L414,115v3.36H394.09V115l4.48-.47,1.59-1.5V88.25c0-6.54-2.62-9.62-8.22-9.62-3.08,0-6.54,1-10.65,3.08V113l1.59,1.5,4.48.47v3.36H366.9V115l5.05-.47,1.59-1.5V79.19H366.9v-2.9l10.84-3.36h3.55v5.14c6.17-3.65,11-5.61,14.95-5.61a11,11,0,0,1,10.27,6.26C413.52,74.61,418.84,72.46,422.58,72.46Z"/><path class="cls-2" d="M459.67,119c-7.38,0-12-5-12-12,0-9.72,8.6-12.52,27.28-17V87c0-7.37-1.87-10.46-8.6-10.46a18.23,18.23,0,0,0-7.09,1.5v7.84h-6.45c-2.15,0-2.9-.65-2.9-2.89,0-5.7,7.1-10.56,18.87-10.56,9.81,0,13.92,4,13.92,13.45V113l1.68,1.5,4.95.47v3.36H476.2L475,112.91C469.1,116.93,464.15,119,459.67,119ZM475,93.29c-13.17,3.65-19.06,6.17-19.06,13,0,4.58,2.8,7.66,7.48,7.66,3.08,0,6.91-1.5,11.58-4.2Z"/><path class="cls-2" d="M494.89,115l4.95-.47,1.68-1.5V79.19h-6.63v-2.9l10.83-3.36h3.55v8.78a110.64,110.64,0,0,1,10-9.06,9.7,9.7,0,0,1,2.33-.19,13.84,13.84,0,0,1,5.61,1.22v8h-3a5.86,5.86,0,0,0-4.77-2.24c-3.08,0-6.35,2.33-10.18,6.82V113l1.59,1.5,6.54.47v3.36H494.89Z"/><path class="cls-2" d="M531,79V76.11l6.17-2.71,4-8.69h3.46v9.9h14.2V79h-14.2v24.66c0,7.1,1.21,10.19,7.75,10.19a30.19,30.19,0,0,0,6.45-.75v3.45a41,41,0,0,1-12.24,2.06c-7.75,0-9.71-2.8-9.71-9.44V79Z"/><path class="cls-2" d="M642.49,62.28c6.26,6.07,9.62,14.48,9.62,24.66a35.88,35.88,0,0,1-4.77,18.5,29.91,29.91,0,0,1-46,6.35c-6.35-6.17-9.62-14.67-9.62-24.85s3.27-18.59,9.53-24.66a29.92,29.92,0,0,1,41.2,0Zm-41,24.66c0,17.38,8.31,27.93,20.45,27.93s20.37-10.55,20.37-27.93S634,59.1,621.93,59.1,601.48,69.38,601.48,86.94Z"/><path class="cls-2" d="M672.85,119c-7.38,0-12-5-12-12,0-9.72,8.6-12.52,27.28-17V87c0-7.37-1.87-10.46-8.6-10.46a18.31,18.31,0,0,0-7.1,1.5v7.84H666c-2.15,0-2.9-.65-2.9-2.89,0-5.7,7.1-10.56,18.87-10.56,9.81,0,13.92,4,13.92,13.45V113l1.68,1.5,4.95.47v3.36H689.38l-1.21-5.42C682.28,116.93,677.33,119,672.85,119Zm15.32-25.69c-13.17,3.65-19.06,6.17-19.06,13,0,4.58,2.8,7.66,7.48,7.66,3.08,0,6.91-1.5,11.58-4.2Z"/><path class="cls-2" d="M707.6,115l5-.47,1.59-1.5V55.83H707V52.94l11.4-3.36H722V94.51h1.77l14.29-16-.65-1.3-4.2-.38V73.4h17.74v3.45l-6,.75-12.8,13.55,16.44,23.16,6,.47v3.55H740v-3.08L727.4,97.12H722V113l1.68,1.5,4.39.47v3.36H707.6Z"/><path class="cls-2" d="M320.24,173.45l1.87-.16.58-.51v-17l-.48-.44-2.1-.16v-1.56h8.6c5.89,0,8.69,1.84,8.69,6.43,0,4.39-3,7.07-8.34,7.07-.48,0-1.21,0-2.17-.1v5.74l.48.51,2.26.16V175h-9.39Zm7.8-8.16c3.31,0,5-1.72,5-5.09,0-3-1.57-4.72-4.46-4.72h-1.66v9.75C327.31,165.26,327.69,165.29,328,165.29Z"/><path class="cls-2" d="M376.77,173.45l1.94-.16.55-.51v-17l-.45-.44-2-.16v-1.56h9.17v1.56l-1.94.16-.51.44v17.36h6.12l.41-.51.48-3.89h2.35V175H376.77Z"/><path class="cls-2" d="M443.21,153.41l7.33,19.72,1.87.32V175h-8.59v-1.56l2-.2.23-.41-1.91-5.41h-6.95l-1.91,5.38.32.41,2,.23V175h-6.85v-1.56l1.91-.29,7.2-19.75Zm-5.41,12.23h5.6l-2.83-7.86Z"/><path class="cls-2" d="M508.63,153.64v5.63h-2.19l-.55-3.4-.47-.42H501.6v17.33l.54.51,2.07.16V175h-9.52v-1.56l2.07-.16.54-.51V155.45h-3.82l-.51.42-.51,3.4h-2.2v-5.63Z"/><path class="cls-2" d="M547.81,173.45l1.92-.16.5-.51v-17l-.5-.44-2-.16v-1.56h16V159h-2.19L561,155.9l-.42-.42h-6.14v7.93h4.27l.44-.41.32-2.32h1.88v7.42h-1.88l-.32-2.33-.44-.41h-4.27v7.42l.54.51,2.23.16V175h-9.4Z"/><path class="cls-2" d="M606.93,155.93a10.58,10.58,0,0,1,7.45-2.77,10.45,10.45,0,0,1,7,2.48,11.22,11.22,0,0,1,3.79,8.76,11,11,0,0,1-3.41,8.31,10.43,10.43,0,0,1-7.17,2.81c-6.59,0-11-4.53-11-11.31A10.84,10.84,0,0,1,606.93,155.93Zm1.47,8.34c0,5.86,2.57,9.3,6,9.3s6-3.44,6-9.07c0-5.89-2.48-9.3-5.95-9.3S608.4,158.57,608.4,164.27Z"/><path class="cls-2" d="M674.87,153.64c4.93,0,7.48,1.91,7.48,5.44,0,2.93-1.88,4.78-5.48,5.45a5.28,5.28,0,0,1,3.35,2c1,1.4,1.24,3.12,1.85,4.72.66,1.75,1.62,2.23,3.75,2.23h.42V175a22.93,22.93,0,0,1-3.19.26,5.34,5.34,0,0,1-3.31-1c-1.66-1.27-1.94-2.71-2.45-4.23-1-3-1.82-4.4-5-4.4h-.54v7.17l.5.51,1.95.16V175h-9v-1.56l1.88-.16.51-.51v-17l-.51-.44-1.88-.16v-1.56Zm-3.15,10.12c.41,0,.79,0,1.14,0,3.41,0,5-1.34,5-4.27,0-2.61-1.62-4.08-4.71-4.08h-1.46Z"/><path class="cls-2" d="M724.27,173.45l2-.23.45-.57V155.77l-.39-.41-2.1-.19v-1.53h8.35v.89l5,14.62,4.94-14.59v-.92H751v1.53l-2.17.19-.35.44v17l.35.51,2.17.16V175h-8.82v-1.56l2-.16.32-.51v-17.1L737.81,175h-2.3l-6.46-19.18v16.82l.48.57,2,.23V175h-7.23Z"/></g></g></svg>